<?xml version="1.0" encoding="iso-8859-1"?>
<!-- Generator: Adobe Illustrator 16.0.0, SVG Export Plug-In . SVG Version: 6.00 Build 0)  -->
<!DOCTYPE svg PUBLIC "-//W3C//DTD SVG 1.1//EN" "http://www.w3.org/Graphics/SVG/1.1/DTD/svg11.dtd">
<svg version="1.1" id="Layer_1" xmlns="http://www.w3.org/2000/svg" xmlns:xlink="http://www.w3.org/1999/xlink" x="0px" y="0px"
	 width="406px" height="264px" viewBox="0 0 406 264" style="enable-background:new 0 0 406 264;" xml:space="preserve">
<rect y="25" style="fill:#E6E6E6;" width="406" height="239"/>
<rect style="fill:#95A5A6;" width="406" height="25"/>
<ellipse style="fill:#E74C3C;" cx="21.099" cy="12.596" rx="5.025" ry="5.039"/>
<ellipse style="fill:#F8FF32;" cx="37.179" cy="12.596" rx="5.025" ry="5.039"/>
<ellipse style="fill:#48FF7D;" cx="53.258" cy="12.596" rx="5.025" ry="5.039"/>
<rect x="58" y="87" style="fill:#2C3E50;" width="230" height="16"/>
<rect x="58" y="117" style="fill:#2C3E50;" width="69" height="16"/>
<rect x="132" y="117" style="fill:#34495E;" width="30" height="16"/>
<rect x="167" y="117" style="fill:#2C3E50;" width="75" height="16"/>
<rect x="58" y="143" style="fill:#2C3E50;" width="94" height="16"/>
<rect x="162" y="143" style="fill:#2C3E50;" width="46" height="16"/>
<rect x="162" y="169" style="fill:#2C3E50;" width="126" height="16"/>
<rect x="58" y="169" style="fill:#2C3E50;" width="61" height="16"/>
<rect x="124" y="169" style="fill:#34495E;" width="33" height="16"/>
<rect x="58" y="46" style="fill:#E74C3C;" width="120" height="32"/>
<rect x="58" y="217" style="fill:#27AE60;" width="37" height="17"/>
<rect x="144" y="217" style="fill:#E74C3C;" width="37" height="17"/>
<rect x="101" y="217" style="fill:#156BA0;" width="38" height="17"/>
</svg>
