<?xml version="1.0" encoding="utf-8"?>
<!-- Generator: Adobe Illustrator 16.0.0, SVG Export Plug-In . SVG Version: 6.00 Build 0)  -->
<!DOCTYPE svg PUBLIC "-//W3C//DTD SVG 1.1//EN" "http://www.w3.org/Graphics/SVG/1.1/DTD/svg11.dtd">
<svg version="1.1" id="Layer_1" xmlns="http://www.w3.org/2000/svg" xmlns:xlink="http://www.w3.org/1999/xlink" x="0px" y="0px"
	 width="200px" height="300px" viewBox="0 0 200 300" enable-background="new 0 0 200 300" xml:space="preserve">
<g id="calculator_1_">
	<path fill="#617B93" d="M-0.104,92.836l199.562-0.85l0.823,197.977c0.004,2.45-0.889,4.922-2.689,6.812
		c-1.805,1.88-4.154,2.815-6.518,2.834L9.996,300.375c-2.35,0.016-4.718-0.904-6.533-2.777c-1.812-1.871-2.734-4.328-2.75-6.789
		L-0.104,92.836z"/>
	<polygon opacity="0.1" fill="#FFFFFF" enable-background="new    " points="174.225,92.094 -0.104,92.836 0.622,267.02 	"/>
	<g>
		<g>
			<g>
				<path fill="#21D8DE" d="M109.427,136.906c0,0.931,0.74,1.685,1.618,1.677l66.479-0.281c0.896-0.002,1.604-0.76,1.604-1.692
					l-0.089-22.256c-0.006-0.908-0.733-1.663-1.618-1.663l-66.48,0.284c-0.881,0.005-1.606,0.764-1.605,1.681L109.427,136.906z"/>
			</g>
			<g>
				<path fill="#E64717" d="M64.321,137.099c0.005,0.932,0.745,1.683,1.627,1.676l21.369-0.088c0.889-0.007,1.614-0.757,1.614-1.693
					l-0.094-22.252c-0.008-0.913-0.75-1.667-1.621-1.666l-21.369,0.096c-0.884,0-1.611,0.76-1.611,1.672L64.321,137.099z"/>
			</g>
			<g>
				<g>
					<path fill="#F2F9FF" d="M19.242,137.285c-0.007,0.938,0.715,1.691,1.604,1.687l21.384-0.097
						c0.872-0.003,1.587-0.758,1.587-1.692l-0.093-22.25c0.003-0.909-0.718-1.669-1.602-1.669l-21.378,0.097
						c-0.896-0.002-1.602,0.768-1.601,1.678L19.242,137.285z"/>
				</g>
			</g>
			<g>
				<g>
					<path fill="#F2F9FF" d="M154.734,183.641c0.006,0.922,0.72,1.67,1.607,1.659l21.376-0.093c0.899-0.003,1.61-0.752,1.608-1.666
						l-0.098-22.254c-0.008-0.926-0.713-1.672-1.61-1.672l-21.384,0.094c-0.889,0-1.6,0.757-1.599,1.688L154.734,183.641z"/>
				</g>
			</g>
			<g>
				<g>
					<path fill="#F2F9FF" d="M109.616,183.836c0.001,0.912,0.741,1.664,1.614,1.66l21.391-0.094
						c0.885-0.006,1.605-0.754,1.609-1.674l-0.094-22.244c-0.012-0.93-0.738-1.684-1.623-1.672l-21.373,0.084
						c-0.891,0.012-1.623,0.766-1.617,1.695L109.616,183.836z"/>
				</g>
			</g>
			<g>
				<g>
					<path fill="#F2F9FF" d="M64.518,184.029c0.008,0.914,0.739,1.664,1.625,1.658l21.375-0.086c0.879-0.017,1.608-0.761,1.61-1.68
						l-0.098-22.25c0-0.924-0.731-1.671-1.615-1.671l-21.375,0.093c-0.891,0-1.623,0.754-1.614,1.686L64.518,184.029z"/>
				</g>
			</g>
			<g>
				<g>
					<path fill="#F2F9FF" d="M19.439,184.219c-0.014,0.922,0.709,1.665,1.599,1.665l21.388-0.094
						c0.877-0.006,1.593-0.752,1.587-1.674l-0.096-22.25c0-0.925-0.728-1.679-1.604-1.673l-21.378,0.088
						c-0.896,0.006-1.596,0.766-1.595,1.691L19.439,184.219z"/>
				</g>
			</g>
			<g>
				<g>
					<path fill="#F2F9FF" d="M154.916,230.557c0.006,0.92,0.734,1.678,1.62,1.672l21.382-0.099c0.883,0.001,1.602-0.761,1.587-1.68
						l-0.089-22.244c-0.006-0.927-0.716-1.671-1.604-1.667l-21.379,0.093c-0.886,0.003-1.602,0.752-1.608,1.681L154.916,230.557z"/>
				</g>
			</g>
			<g>
				<g>
					<path fill="#F2F9FF" d="M109.805,230.751c0.008,0.919,0.754,1.669,1.643,1.67l21.357-0.095c0.896-0.003,1.62-0.764,1.619-1.682
						l-0.094-22.248c-0.001-0.918-0.737-1.672-1.629-1.67l-21.371,0.099c-0.883,0.007-1.609,0.752-1.609,1.679L109.805,230.751z"/>
				</g>
			</g>
			<g>
				<path fill="#20364D" d="M64.712,230.941c-0.002,0.92,0.735,1.672,1.623,1.664l21.375-0.082c0.883-0.012,1.606-0.77,1.599-1.688
					l-0.078-22.247c-0.01-0.922-0.744-1.667-1.622-1.667l-21.376,0.099c-0.884,0.002-1.62,0.754-1.611,1.676L64.712,230.941z"/>
			</g>
			<g>
				<g>
					<path fill="#F2F9FF" d="M155.117,277.475c-0.004,0.922,0.723,1.67,1.609,1.666l21.377-0.092
						c0.895,0.003,1.606-0.76,1.603-1.683l-0.099-22.231c0.002-0.923-0.727-1.683-1.609-1.675l-21.375,0.087
						c-0.895,0.008-1.598,0.771-1.598,1.688L155.117,277.475z"/>
				</g>
			</g>
			<g>
				<g>
					<path fill="#F2F9FF" d="M110.001,277.664c0.007,0.927,0.745,1.668,1.636,1.669L133,279.238c0.896,0,1.618-0.752,1.609-1.672
						l-0.084-22.241c-0.004-0.919-0.73-1.683-1.621-1.683l-21.375,0.094c-0.889,0.003-1.614,0.772-1.608,1.695L110.001,277.664z"/>
				</g>
			</g>
			<g>
				<g>
					<path fill="#20364D" d="M64.904,277.861c0,0.921,0.745,1.676,1.631,1.66l21.371-0.09c0.879-0.004,1.605-0.755,1.597-1.674
						l-0.082-22.244c-0.013-0.916-0.741-1.683-1.618-1.679l-21.375,0.099c-0.884,0.004-1.609,0.775-1.615,1.689L64.904,277.861z"/>
				</g>
			</g>
			<g>
				<path fill="#20364D" d="M19.81,278.053c0.017,0.924,0.737,1.67,1.619,1.662l21.382-0.087c0.874-0.008,1.6-0.757,1.583-1.681
					l-0.084-22.235c-0.004-0.919-0.727-1.683-1.606-1.679l-21.378,0.089c-0.889,0-1.608,0.774-1.602,1.692L19.81,278.053z"/>
			</g>
			<g>
				<path fill="#20364D" d="M19.624,231.136c0.006,0.921,0.713,1.671,1.614,1.667l21.366-0.088c0.887-0.005,1.606-0.765,1.607-1.688
					l-0.101-22.244c0.001-0.926-0.72-1.669-1.605-1.666l-21.375,0.09c-0.892,0.007-1.607,0.76-1.597,1.684L19.624,231.136z"/>
			</g>
		</g>
	</g>
	<path fill="#365772" d="M-0.436,10.048c-0.016-2.464,0.89-4.921,2.673-6.813C4.05,1.352,6.407,0.4,8.757,0.39l181.08-0.771
		c2.353-0.014,4.726,0.922,6.526,2.795c1.822,1.866,2.751,4.317,2.758,6.782l0.336,82.792l-199.562,0.85L-0.436,10.048z"/>
	<path fill="#2F4F6B" d="M177.264,75.465c1.461-0.006,2.828-0.597,3.863-1.677c1.03-1.082,1.566-2.494,1.571-4.013l-0.194-47.826
		c-0.016-1.519-0.583-2.947-1.615-4.006c-1.035-1.057-2.406-1.648-3.863-1.642L20.338,16.96c-1.456,0.008-2.828,0.612-3.86,1.7
		c-1.007,1.052-1.582,2.487-1.576,3.999l0.2,47.831c0.012,1.518,0.592,2.928,1.616,4.001c1.02,1.056,2.4,1.648,3.869,1.641
		L177.264,75.465z"/>
	<path fill="#A2D7E7" d="M177.049,20.29c0.409,0,0.819,0.165,1.126,0.481c0.325,0.331,0.478,0.768,0.478,1.189l0.199,47.826
		c0.006,0.424-0.146,0.867-0.465,1.192c-0.312,0.335-0.724,0.493-1.143,0.493L20.58,72.138c-0.418,0.004-0.823-0.154-1.146-0.482
		c-0.31-0.325-0.475-0.765-0.47-1.183l-0.196-47.829c0-0.421,0.151-0.864,0.458-1.192c0.317-0.332,0.724-0.496,1.137-0.496
		L177.049,20.29z"/>
	<path opacity="0.2" fill="#FFFFFF" enable-background="new    " d="M177.049,20.29c0.409,0,0.819,0.165,1.126,0.481
		c0.325,0.331,0.478,0.768,0.478,1.189l0.199,47.826c0.006,0.424-0.146,0.867-0.465,1.192c-0.312,0.335-0.724,0.493-1.143,0.493
		L18.767,22.645c0-0.421,0.151-0.864,0.458-1.192c0.317-0.332,0.724-0.496,1.137-0.496L177.049,20.29z"/>
	<polygon fill="#2F4F6B" points="-0.104,92.836 199.458,91.987 199.449,87.982 -0.12,88.836 	"/>
</g>
</svg>
