<?xml version="1.0" encoding="iso-8859-1"?>
<!-- Generator: Adobe Illustrator 16.0.0, SVG Export Plug-In . SVG Version: 6.00 Build 0)  -->
<!DOCTYPE svg PUBLIC "-//W3C//DTD SVG 1.1//EN" "http://www.w3.org/Graphics/SVG/1.1/DTD/svg11.dtd">
<svg version="1.1" id="Layer_1" xmlns="http://www.w3.org/2000/svg" xmlns:xlink="http://www.w3.org/1999/xlink" x="0px" y="0px"
	 width="327px" height="396px" viewBox="0 0 327 396" style="enable-background:new 0 0 327 396;" xml:space="preserve">
<polygon style="fill:#E74C3C;" points="54,394 54,317 89,317 89,376.957 "/>
<polygon style="fill:#C0392B;" points="123,394 88,376.957 88,317 123,317 "/>
<rect x="177" style="fill:#F39C12;" width="150" height="325"/>
<rect x="28" style="fill:#F1C40F;" width="150" height="325"/>
<rect x="103" y="87" style="fill:#E74C3C;" width="75" height="39"/>
<rect x="63" y="35" style="fill:#1ABC9C;" width="115" height="21"/>
<rect x="89" y="260" style="fill:#1ABC9C;" width="89" height="18"/>
<rect x="122" y="168" style="fill:#34495E;" width="57" height="16"/>
<rect x="114" y="190" style="fill:#34495E;" width="65" height="17"/>
<rect style="fill:#34495E;" width="28" height="325"/>
<rect x="21" style="fill:#49657C;" width="7" height="325"/>
<rect y="40" style="fill:#49657C;" width="21" height="47"/>
<rect y="268" style="fill:#49657C;" width="21" height="16"/>
<rect y="293" style="fill:#49657C;" width="21" height="14"/>
<line style="fill:#F1C40F;" x1="91" y1="149" x2="241" y2="149"/>
<rect x="178" y="87" style="fill:#C0392B;" width="75" height="39"/>
<rect x="178" y="35" style="fill:#1A9980;" width="115" height="21"/>
<rect x="178" y="260" style="fill:#1A9980;" width="89" height="18"/>
<rect x="178" y="190" style="fill:#2C3E50;" width="65" height="17"/>
<rect x="178" y="168" style="fill:#2C3E50;" width="48" height="16"/>
<rect x="177" y="146" style="fill:#2C3E50;" width="69" height="16"/>
<rect x="107" y="146" style="fill:#34495E;" width="71" height="16"/>
</svg>
