<svg xmlns="http://www.w3.org/2000/svg" xmlns:xlink="http://www.w3.org/1999/xlink" version="1.1" id="imgView" x="0px" y="0px" width="256px" height="256px" viewBox="0 0 31.312 31.312" style="enable-background:new 0 0 31.312 31.312;" xml:space="preserve" class="detail convertSvgInline replaced-svg" data-id="43532" data-kw="professor8">
<g>
	<g>
		<polygon fill="#2c3e50" points="2.932,0.462 2.932,3.415 4.22,3.017 4.22,1.751 30.023,1.751 30.023,18.198 9.491,18.198 9.423,19.489     31.312,19.489 31.312,0.462   "></polygon>
		<circle fill="#2c3e50" cx="4.984" cy="7.525" r="3.822"></circle>
		<path fill="#2c3e50" d="M8.228,29.103v-6.802v-0.642v-0.87h0.243l0.354-6.905l6.59-3.415l-0.276-0.536l0.628-0.435    c0.061,0.034,0.13,0.057,0.207,0.057c0.108,0,0.229-0.041,0.325-0.148c-0.101,1.297-0.217,2.553-0.217,2.932    c0,0.466,0.162,0.675,0.702,0.675h0.37c0.082,0,0.104-0.027,0.107-0.102c0.021-0.189,0.279-3.749,0.279-4.126    c0-0.331-0.203-0.568-0.697-0.568h-0.404c-0.015,0-0.229,0.142-0.379,0.229c-0.574,0.352-0.614,0.386-0.614,0.473    c0,0.057,0.012,0.123,0.031,0.189L14.913,9.5l-0.364-0.702L8.525,11.92h-2.15l-1.456,1.69l-1.411-1.69L0.41,12.536l-0.195,6.828    h1.312l0.07,1.426h0.199v0.87v0.642v6.803H1.534L0,29.437v1.414h1.306l1.524-0.25l0.012,0.25H4.53v-1.576v-0.17v-6.803h0.962    v6.803v0.17v1.576H7.18l0.015-0.25l1.523,0.25h1.307v-1.414L8.49,29.103H8.228z"></path>
		<path fill="#2c3e50" d="M19.427,3.443c-0.088,0-0.122,0.024-0.163,0.147c-0.23,0.699-0.265,0.797-0.644,1.594    c-0.349-1.096-0.206-0.649-0.379-1.219c-0.089-0.291-0.183-0.526-0.728-0.526c-0.227,0-0.33,0.039-0.33,0.103    c0,0.124,0.407,1.008,0.625,1.5c0.144,0.319,0.172,0.378,0.28,0.575c-0.045,0.526-0.055,0.738-0.055,0.851    c0,0.32,0.118,0.472,0.511,0.472h0.271c0.059,0,0.072-0.02,0.078-0.074c0.015-0.132,0.059-0.762,0.068-1.072    c0.417-0.433,1.146-1.716,1.146-2.041C20.109,3.458,19.49,3.443,19.427,3.443z"></path>
		<path fill="#2c3e50" d="M21.438,4.186c-1.268,0-1.459,1.156-1.459,1.653c0,0.895,0.629,1.151,1.199,1.151c0.438,0,0.965-0.152,0.965-0.537    c0-0.295-0.31-0.349-0.373-0.349c-0.139,0-0.133,0.271-0.478,0.271c-0.336,0-0.469-0.25-0.469-0.502    c0.319,0,1.54-0.049,1.54-0.949C22.365,4.52,22.123,4.186,21.438,4.186z M20.839,5.479c0.035-0.28,0.144-0.639,0.435-0.639    c0.166,0,0.25,0.124,0.25,0.256C21.523,5.337,21.242,5.474,20.839,5.479z"></path>
		<path fill="#2c3e50" d="M22.514,6.335c0,0.477,0.318,0.654,0.713,0.654c0.408,0,0.645-0.202,0.803-0.428c0.05,0.266,0.197,0.428,0.513,0.428    c0.45,0,0.589-0.349,0.589-0.64c0-0.103-0.29,0.005-0.29-0.324c0-0.148,0.083-0.827,0.083-0.974c0-0.551-0.311-0.865-1.037-0.865    c-0.754,0-1.127,0.334-1.127,0.747c0,0.261,0.168,0.379,0.504,0.379c0.098,0,0.137-0.01,0.151-0.069    c0.058-0.236,0.103-0.398,0.379-0.398c0.244,0,0.304,0.133,0.304,0.344c0,0.068-0.005,0.113-0.009,0.182    C23.061,5.396,22.514,5.75,22.514,6.335z M23.586,6.335c-0.107,0-0.227-0.049-0.227-0.202c0-0.261,0.339-0.359,0.684-0.359    C24.014,6.148,23.797,6.335,23.586,6.335z"></path>
		<path fill="#2c3e50" d="M27.021,5.41c0.345,0,0.564-0.3,0.564-0.653c0-0.395-0.279-0.571-0.537-0.571c-0.211,0-0.511,0.118-0.664,0.423    c-0.023-0.201-0.133-0.374-0.505-0.374h-0.192c-0.055,0-0.1,0.049-0.104,0.143c-0.104,1.446-0.146,1.894-0.146,2.095    c0,0.3,0.099,0.467,0.5,0.467h0.179c0.054,0,0.108-0.035,0.108-0.099c0-0.113,0.062-0.836,0.092-1.254    c0.035-0.477,0.162-0.719,0.347-0.719c0.116,0,0.146,0.104,0.146,0.247c0,0.078-0.009,0.147-0.009,0.231    C26.8,5.396,26.945,5.41,27.021,5.41z"></path>
		<path fill="#2c3e50" d="M18.088,11.765c0,0.764,0.566,1.318,1.594,1.318c1.426,0,1.973-1.075,1.973-1.811c0-0.425-0.184-0.722-0.588-0.925    c0.418-0.277,0.541-0.622,0.541-0.979c0-0.622-0.366-1.208-1.474-1.208c-1.297,0-1.776,0.81-1.776,1.513    c0,0.459,0.203,0.743,0.455,0.85C18.323,10.839,18.088,11.265,18.088,11.765z M20.093,9.104c0.257,0,0.372,0.162,0.372,0.378    c0,0.25-0.094,0.669-0.508,0.669c-0.223,0-0.35-0.114-0.35-0.406C19.607,9.529,19.693,9.104,20.093,9.104z M19.971,10.772    c0.231,0,0.393,0.102,0.393,0.453c0,0.271-0.094,0.804-0.566,0.804c-0.271,0-0.419-0.169-0.419-0.514    C19.377,11.272,19.451,10.772,19.971,10.772z"></path>
		<path fill="#2c3e50" d="M22.268,8.692L22.247,9.07c0,0.074,0,0.095,0.073,0.095h1.606c-0.067,0.135-0.073,0.223-1.081,2.081    c-0.492,0.904-0.627,1.155-0.627,1.337c0,0.284,0.316,0.433,0.764,0.433h0.244c0.072,0,0.112-0.041,0.14-0.102    c0.479-1.114,0.616-1.357,1.899-3.945c0.033-0.067,0.065-0.142,0.08-0.29l0.027-0.365c0-0.067-0.057-0.095-0.107-0.095h-2.513    C22.335,8.219,22.279,8.462,22.268,8.692z"></path>
		<path fill="#2c3e50" d="M25.98,11.717h1.571c-0.026,0.459-0.032,0.655-0.032,0.724c0,0.364,0.209,0.574,0.703,0.574h0.37    c0.08,0,0.103-0.027,0.107-0.102c0.021-0.189,0.263-3.431,0.263-4.053c0-0.412-0.105-0.642-0.681-0.642h-0.371    c-0.147,0-0.104,0.047-0.136,0.676c-0.014,0.27-0.096,1.256-0.149,1.891h-0.903c0.305-1.195,0.412-1.641,0.412-1.972    c0-0.425-0.162-0.594-0.677-0.594h-0.306c-0.101,0-0.105,0.169-0.105,0.277c0,0.358-0.096,0.723-0.271,1.358    c-0.264,0.945-0.377,1.256-0.377,1.465C25.398,11.61,25.629,11.717,25.98,11.717z"></path>
		<rect fill="#2c3e50" x="23.637" y="15.243" width="5.051" height="1.878"></rect>
	</g>
</g>
<g>
</g>
<g>
</g>
<g>
</g>
<g>
</g>
<g>
</g>
<g>
</g>
<g>
</g>
<g>
</g>
<g>
</g>
<g>
</g>
<g>
</g>
<g>
</g>
<g>
</g>
<g>
</g>
<g>
</g>
</svg>