<?xml version="1.0" encoding="utf-8"?>
<!-- Generator: Adobe Illustrator 16.0.0, SVG Export Plug-In . SVG Version: 6.00 Build 0)  -->
<!DOCTYPE svg PUBLIC "-//W3C//DTD SVG 1.1//EN" "http://www.w3.org/Graphics/SVG/1.1/DTD/svg11.dtd">
<svg version="1.1" id="Capa_1" xmlns="http://www.w3.org/2000/svg" xmlns:xlink="http://www.w3.org/1999/xlink" x="0px" y="0px"
	 width="93.559px" height="93.559px" viewBox="0 0 93.559 93.559" enable-background="new 0 0 93.559 93.559" xml:space="preserve">
<g>
	<g>
		<path fill="#c0392b" d="M72.766,74.275C59.4,63.824,68.833,20.837,68.833,20.837s14.631,0,16.336,0s8.39-1.071,8.39-9.076
			c0-9.846-8.168-9.24-8.168-9.24s-44.774,0-60.147,0c-9.873,0-18.784,11.304-23.899,19.389c-2.723,4.318-1.183,5.528,3.493,3.493
			c16.393-7.178,21.013-4.593,21.013-4.593c1.154,5.527,1.54,30.473-2.667,40.317c-4.264,9.27-12.128,21.013-0.578,27.915
			c9.021,5.115,18.48-5.391,17.546-23.268c-0.44-9.461-1.184-44.938-1.184-44.938h15.072c-0.469,5.528-3.024,33.745-0.356,50.467
			c2.776,27.915,33.111,22.497,38.776,6.686c1.402-4.373,1.073-7.729,0.027-10.26c-1.926-4.702-5.145-4.949-4.785-2.75
			c0.221,1.401,0.083,2.776-0.138,4.016C86.902,72.817,79.092,78.811,72.766,74.275z"/>
	</g>
</g>
</svg>
