<?xml version="1.0" encoding="iso-8859-1"?>
<!-- Generator: Adobe Illustrator 16.0.0, SVG Export Plug-In . SVG Version: 6.00 Build 0)  -->
<!DOCTYPE svg PUBLIC "-//W3C//DTD SVG 1.1//EN" "http://www.w3.org/Graphics/SVG/1.1/DTD/svg11.dtd">
<svg version="1.1" id="Layer_1" xmlns="http://www.w3.org/2000/svg" xmlns:xlink="http://www.w3.org/1999/xlink" x="0px" y="0px"
	 width="394px" height="330px" viewBox="0 0 394 330" style="enable-background:new 0 0 394 330;" xml:space="preserve">
<rect x="1" y="34" style="fill:#ECF0F1;" width="393" height="296"/>
<rect x="1" style="fill:#95A5A6;" width="393" height="45"/>
<ellipse style="fill:#E74C3C;" cx="27" cy="21.455" rx="6.5" ry="6.641"/>
<ellipse style="fill:#F1C40F;" cx="48" cy="21.455" rx="6.5" ry="6.641"/>
<ellipse style="fill:#2ECC71;" cx="68" cy="21.455" rx="6.5" ry="6.641"/>
<rect x="41" y="85" style="fill:#E74C3C;" width="155" height="26"/>
<rect x="40" y="129" style="fill:none;stroke:#999999;stroke-width:2;stroke-miterlimit:10;" width="299" height="180"/>
<rect x="48" y="180" style="fill:#27AE60;" width="52" height="15"/>
<rect x="110" y="180" style="fill:#27AE60;" width="86" height="15"/>
<rect x="206" y="180" style="fill:#27AE60;" width="22" height="15"/>
<rect x="238" y="180" style="fill:#27AE60;" width="69" height="15"/>
<rect x="48" y="209" style="fill:#27AE60;" width="141" height="15"/>
<rect x="195" y="209" style="fill:#27AE60;" width="86" height="15"/>
<rect x="48" y="236" style="fill:#27AE60;" width="86" height="15"/>
<rect x="142" y="236" style="fill:#27AE60;" width="86" height="15"/>
<rect x="233" y="236" style="fill:#27AE60;" width="66" height="15"/>
<rect x="48" y="262" style="fill:#27AE60;" width="148" height="16"/>
<rect x="206" y="262" style="fill:#27AE60;" width="43" height="16"/>
<rect x="256" y="262" style="fill:#27AE60;" width="51" height="16"/>
<rect x="40" y="129" style="fill:none;stroke:#999999;stroke-width:2;stroke-miterlimit:10;" width="299" height="26"/>
<rect x="50" y="137" style="fill:none;stroke:#999999;stroke-width:2;stroke-miterlimit:10;" width="10" height="10"/>
<rect x="65" y="137" style="fill:none;stroke:#999999;stroke-width:2;stroke-miterlimit:10;" width="10" height="10"/>
<rect x="80" y="137" style="fill:none;stroke:#999999;stroke-width:2;stroke-miterlimit:10;" width="10" height="10"/>
<rect x="95" y="137" style="fill:none;stroke:#999999;stroke-width:2;stroke-miterlimit:10;" width="10" height="10"/>
<rect x="110" y="137" style="fill:none;stroke:#999999;stroke-width:2;stroke-miterlimit:10;" width="10" height="10"/>
<rect x="125" y="137" style="fill:none;stroke:#999999;stroke-width:2;stroke-miterlimit:10;" width="10" height="10"/>
<rect x="140" y="137" style="fill:none;stroke:#999999;stroke-width:2;stroke-miterlimit:10;" width="10" height="10"/>
<rect x="155" y="137" style="fill:none;stroke:#999999;stroke-width:2;stroke-miterlimit:10;" width="10" height="10"/>
<rect x="281" y="137" style="fill:none;stroke:#999999;stroke-width:2;stroke-miterlimit:10;" width="10" height="10"/>
<rect x="296" y="137" style="fill:none;stroke:#999999;stroke-width:2;stroke-miterlimit:10;" width="10" height="10"/>
<rect x="311" y="137" style="fill:none;stroke:#999999;stroke-width:2;stroke-miterlimit:10;" width="10" height="10"/>
</svg>
